<?xml version="1.0" encoding="UTF-8" standalone="no"?>
<svg width="210px" height="126px" viewBox="0 0 210 126" version="1.1" xmlns="http://www.w3.org/2000/svg" xmlns:xlink="http://www.w3.org/1999/xlink">
    <!-- Generator: Sketch 3.8.3 (29802) - http://www.bohemiancoding.com/sketch -->
    <title>Combined-Shape</title>
    <desc>Created with Sketch.</desc>
    <defs></defs>
    <g id="Page-1" stroke="none" stroke-width="1" fill="none" fill-rule="evenodd">
        <g id="tap" fill="#F6F6F6">
            <g id="Page-1">
                <g id="Artboard">
                    <g id="Page-1">
                        <path d="M122.696046,77.5580488 C121.411927,76.4987292 120.33559,76.4600572 119.069688,77.5301462 C115.50537,80.544116 112.050853,83.695151 108.382644,86.5774402 C105.731193,88.6608339 102.886237,90.5342241 99.9792428,92.2539046 C97.5473922,93.6921122 95.8644472,92.7776899 95.4936872,89.9918365 C95.2337121,88.0376759 95.1071712,86.0507175 95.1180035,84.0794236 C95.1352367,80.888248 95.304122,77.6975618 95.4277087,74.5073651 C95.5123975,72.3045286 94.9880159,70.351347 93.3528314,68.7452346 C91.6245877,67.0480715 88.5447689,66.6471552 86.7219887,68.1744552 C85.4142351,69.2699991 84.1956018,70.5500918 83.2211874,71.9442425 C81.1743757,74.8735254 79.3117131,77.9305729 77.3791328,80.9381789 C77.0226518,81.4923146 76.7700623,82.1502284 75.6956954,82.3665959 C75.8586722,81.5554626 75.9827513,80.9626549 76.0964904,80.3678891 C76.6361358,77.5492374 77.3033068,74.7462505 77.6711125,71.9055705 C78.0000204,69.3654554 76.5662182,67.4896177 74.100886,66.7039395 C71.347513,65.8262316 70.3790073,66.2100146 68.7000012,68.8436279 C68.5966021,69.0056587 68.4912334,69.1662211 68.3957122,69.3326576 C66.4833194,72.6638358 64.2750081,75.7928426 61.8771315,78.7945743 C60.8810526,80.0413798 59.955876,81.3449694 58.9435485,82.5775787 C56.4082987,85.6644869 53.6436013,88.4885231 49.9167988,90.1886234 C47.3337883,91.3668962 45.3844673,90.4975101 44.9378813,87.7248732 C44.6050343,85.6591021 44.6025724,83.5385049 44.4794782,81.4409151 C44.3977435,80.0531282 44.5548119,78.6203055 44.2574161,77.2839181 C43.8881333,75.628364 44.1865138,74.2821863 45.2057344,72.9854499 C46.9649979,70.7478576 48.1078053,68.1783713 49.0708949,65.5330095 C49.3032969,64.894187 49.4756289,64.1124247 49.3244691,63.4789869 C48.8990552,61.6902837 48.5967357,59.6861921 46.8034982,58.7056852 C44.6109428,57.5068526 42.2642735,56.6027107 39.6487662,56.9972632 C39.52321,57.0163544 39.4045472,57.0765653 39.2799757,57.1078945 C36.9766356,57.6894433 35.4423884,59.3415706 33.8776139,60.9486621 C31.4565956,63.4344407 29.6283994,66.3710663 27.6982811,69.2137044 C26.2305049,71.3744422 25.0753881,73.7432256 23.7538479,76.0033358 C21.6902954,79.5322798 20.1801747,83.219828 20.3613696,87.4037485 C20.4051911,88.4185219 20.0063656,89.1307723 19.0541083,89.51994 C18.4716261,89.7578462 17.8876669,89.9918365 17.1003559,90.3100244 C16.776864,89.6002217 16.4262916,89.1562273 16.3834547,88.6848203 C16.0954141,85.5127358 15.4405526,82.2946366 15.7285932,79.1666089 C16.1722249,74.3507189 17.1367917,69.5651792 18.1471496,64.8227171 C18.9034408,61.2697868 20.2205496,57.836299 21.0078607,54.2882639 C21.3855139,52.5857161 22.3170914,51.9424878 23.7907762,51.639965 C27.5008378,50.878273 31.1966205,50.0299363 34.9308086,49.4106944 C38.0874383,48.8873985 41.2923211,48.6573245 44.4711078,48.2578768 C46.5671571,47.9940259 48.6543438,47.6626214 50.7444847,47.3542243 C50.9330651,47.3263217 51.1186914,47.2572995 51.2969319,47.1868087 C52.7617537,46.6086866 53.0803218,44.9183767 51.8021107,44.0181509 C51.0389263,43.4806588 50.0945469,42.9691112 49.1939891,42.8942148 C45.8743826,42.619105 42.5252334,42.2651826 39.2139972,42.4394515 C34.991371,42.6616932 30.7953332,43.3773703 26.5855087,43.8546515 C25.9350786,43.9285689 25.2698771,43.8654209 24.4702566,43.8654209 C24.5578998,43.3156908 24.5519912,42.9906501 24.6627761,42.7116242 C25.8154309,39.8082857 26.9680858,36.9044579 28.1650546,34.0192316 C28.5535401,33.0822918 29.0173593,32.2089896 29.9829109,31.6205875 C30.4546082,31.3332397 30.785978,30.6185417 30.9307369,30.0360139 C31.3832315,28.2115757 30.8893772,26.6059528 29.4225857,25.3870499 C28.0089711,24.2122038 26.288113,23.9909412 24.5500217,24.2180781 C23.9970822,24.2900374 23.4411884,24.8338933 23.0221755,25.2857195 C22.595777,25.7468465 22.244712,26.3254582 22.0196957,26.9128813 C20.9010149,29.8323739 19.8015367,32.7596987 18.7606515,35.7075834 C17.7827905,38.4767935 16.8787861,41.2719481 15.9580409,44.060739 C15.5680782,45.2419489 14.7684578,45.8440576 13.5261903,45.8504213 C12.3705811,45.855806 11.1745972,46.0242006 10.067241,45.7902104 C7.92096912,45.3378947 5.5363867,45.5855915 3.75348915,43.880596 C3.57672576,43.7112224 3.11044463,43.6759769 2.8613018,43.7782865 C2.15424824,44.0680818 1.43685478,44.388717 0.823352881,44.8336899 C0.165044667,45.3114607 -0.238704575,46.0736421 0.155689501,46.8588309 C1.02128848,48.5829175 2.08728496,50.2614789 3.87855293,51.1029623 C5.8529852,52.0306012 7.98891717,52.5289318 10.2188931,52.5710305 C11.0741522,52.5871846 11.9235028,52.8916656 12.94617,53.0997112 C12.7492192,53.9333624 12.6212011,54.5433033 12.4611786,55.1449225 C11.7068568,57.9851129 10.7934973,60.7934845 10.221355,63.6694098 C9.47392657,67.4220641 8.90867763,71.2173066 8.43205658,75.014507 C8.14647785,77.2853866 8.16863481,79.5954277 8.0721289,81.8883357 C7.84760492,87.2206684 9.70337431,91.673825 13.9668679,94.9668205 C16.9659369,97.2832248 20.4135615,97.5118309 23.8158875,96.0902666 C25.7548686,95.2801126 27.5525374,94.5678625 29.7426309,94.4875808 C32.3822647,94.3911453 34.1981514,92.4785938 35.7481546,90.4500266 C36.2287147,89.8205046 36.7506344,89.2223124 37.3523193,88.4890127 C37.7373582,89.0176934 37.9643441,89.3099362 38.1706501,89.615886 C39.5665393,91.6875315 41.0628733,93.6084041 43.1249487,95.1557747 C47.4430961,98.3959024 52.4308763,97.7472897 56.7642874,95.6668326 C59.2685175,94.4650627 61.1937121,92.4384535 63.1341702,90.4833142 C63.637872,89.9761722 64.233156,89.5591014 64.7865879,89.1009116 C64.9180526,89.1870671 65.0495173,89.2732222 65.1809819,89.3593776 C64.9850158,90.2067351 64.7792022,91.0521347 64.5960379,91.9019406 C64.2607291,93.455185 63.9318212,95.0094083 63.6152227,96.5665694 C63.4881894,97.1921746 63.4448602,97.8373609 63.2868071,98.4541555 C62.2390287,102.532829 61.095729,106.588985 60.1331317,110.68724 C59.404906,113.786387 58.4639733,116.863504 58.623011,120.119786 C58.6756954,121.199665 58.9312391,122.140521 59.687038,122.90466 C60.4502226,123.675653 61.1951891,124.486786 62.0607881,125.130015 C63.7151752,126.358708 65.2508995,126.298986 66.7492031,124.867632 C67.5163267,124.134822 68.1445999,123.191519 68.6172819,122.236467 C69.2952852,120.867282 69.6847555,119.357115 70.3548808,117.983035 C72.0683532,114.468286 73.3992485,110.808152 74.5991715,107.104449 C75.9783199,102.845142 77.8257189,98.7821329 79.596307,94.6838782 C80.8577772,91.7643858 82.3713445,88.9746157 84.0134222,86.2543575 C84.887884,84.8053807 85.8499889,83.4087824 86.7727036,81.9881976 C86.9125387,82.0214849 87.0523738,82.0547722 87.1917166,82.08757 C87.2611417,82.8140165 87.3945759,83.540463 87.3886673,84.2659304 C87.350262,88.9266428 88.1104922,93.162452 91.9091818,96.5577578 C96.0490886,100.258033 100.7636,100.771539 105.302332,98.8261901 C108.663298,97.3855351 111.578171,95.1097596 114.373888,92.7620256 C115.987901,91.4065471 117.337506,89.7289649 118.996817,88.4385922 C121.006208,86.8760468 122.641392,85.0496507 123.81522,82.838982 C124.925038,80.7482455 124.498147,79.0452081 122.696046,77.5580488 L122.696046,77.5580488 Z M209.508009,26.9515354 C209.087026,26.2422221 208.568061,25.5892035 208.081592,24.9190517 C206.434099,22.647193 204.728997,20.4149856 203.142065,18.1020073 C200.434483,14.155993 197.828823,10.1409565 195.126165,6.19102595 C192.96463,3.031669 189.82031,1.27527409 186.196907,0.25609511 C185.04819,-0.0674770853 183.95856,-0.204052944 182.890101,0.583583457 C182.521803,0.855266614 181.936367,0.940442956 181.452853,0.932121129 C180.475484,0.915966997 179.927468,1.36240852 179.521749,2.20682914 C178.858026,3.58580474 178.156388,4.95156332 177.390249,6.27669182 C174.766864,10.8140453 172.072576,15.3117478 169.473809,19.8628079 C167.356588,23.5718948 165.156154,27.2447574 163.680008,31.2788853 C162.880388,33.465078 163.05075,34.6683162 164.947879,35.9533041 C168.219725,38.1708261 169.950923,38.2672614 172.370464,35.2097244 C173.280377,34.0598438 174.109048,32.8335983 174.85943,31.5745549 C176.396632,28.9952781 177.842743,26.3626439 179.359757,23.7711292 C179.626626,23.3153868 180.054009,22.952653 180.407536,22.5468417 C180.583807,22.6241857 180.76057,22.7015297 180.936841,22.7793633 C180.936841,23.3800034 181.036794,24.0007137 180.920101,24.5783464 C180.303152,27.6334357 179.703437,30.6953784 178.96044,33.7215861 C178.078592,37.3122095 177.225303,40.9238822 176.063293,44.4293292 C173.250342,52.9141656 170.270475,61.3343855 165.288112,68.8950095 C162.565759,73.0255726 159.671566,76.986762 155.838902,80.1764691 C154.511454,81.281314 153.080605,82.2628 151.714751,83.3235881 C148.593573,85.7476872 145.160228,87.5613559 141.308853,88.5227716 C140.42159,88.7440343 139.723891,89.0700541 139.519555,90.01091 C139.332452,90.8719743 139.432896,91.7624097 140.165554,92.2886429 C141.993257,93.6025124 143.859859,94.7264485 146.346364,94.344134 C149.547308,93.8516776 152.364197,92.4124912 154.97675,90.749105 C159.018673,88.175213 162.798161,85.1955096 165.995165,81.573557 C169.653527,77.4292874 172.719067,72.858157 175.335559,68.0251339 C178.60002,61.9957258 180.732505,55.4767986 183.029936,49.0450058 C184.922142,43.7474289 186.168348,38.2667719 187.31214,32.7680027 C187.740508,30.7056583 188.316098,28.6433139 188.451009,26.5569829 C188.809459,21.0185627 189.252599,15.4752472 188.951264,9.91332995 C188.929107,9.5055605 189.040384,9.09044822 189.108824,8.52113737 C190.34863,9.08800062 190.835591,10.0949417 191.385084,10.9682439 C193.25267,13.9376674 195.002579,16.9805187 196.869181,19.9499423 C198.194167,22.0583015 199.852493,23.9865176 200.962311,26.1937597 C202.011567,28.2805801 203.839764,29.3981525 205.503506,30.7423721 C206.563101,31.5985413 208.21798,31.4115449 209.056991,30.5911108 C210.121018,29.5503929 210.30369,28.2923286 209.508009,26.9515354 L209.508009,26.9515354 Z" id="Combined-Shape"></path>
                    </g>
                </g>
            </g>
        </g>
    </g>
</svg>